<svg width="100%" height="100%" viewBox="0 0 20 27" fill="#008BDA" xmlns="http://www.w3.org/2000/svg">
  <path
    d="M14.3272 8.47461H13.9393C12.9502 9.5731 11.5587 10.2789 10.0023 10.3435C8.44595 10.2789 7.05444 9.5731 6.06535 8.47461H5.67747C3.75262 8.47461 2.19141 10.0751 2.19141 12.0484V21.4328C2.29807 22.7351 2.77807 24.7233 4.63504 25.6876C6.29322 26.3884 8.10171 26.7911 9.99747 26.8209H10.0023H10.0072C11.9029 26.7911 13.7114 26.3884 15.3696 25.6876C17.2266 24.7233 17.7066 22.7351 17.8132 21.4328V12.0435C17.8132 10.0702 16.252 8.47461 14.3272 8.47461Z"
    fill=""/>
  <path
    d="M10.0023 9.10585C12.4149 9.10585 14.3708 7.10077 14.3708 4.62739C14.3708 2.154 12.4149 0.148926 10.0023 0.148926C7.58963 0.148926 5.63379 2.154 5.63379 4.62739C5.63379 7.10077 7.58963 9.10585 10.0023 9.10585Z"
    fill=""/>
</svg>
