<svg width="11" height="11" viewBox="0 0 11 11" fill="none" xmlns="http://www.w3.org/2000/svg">
  <path
    d="M0.337036 5.47759C0.337036 4.51816 1.11481 3.74039 2.07424 3.74039H9.02305C9.98248 3.74039 10.7603 4.51816 10.7603 5.47759C10.7603 6.43702 9.98248 7.21479 9.02305 7.21479H2.07424C1.11481 7.21479 0.337036 6.43702 0.337036 5.47759Z"
    fill="#444444"/>
  <path
    d="M5.54869 0.26593C6.50812 0.26593 7.28589 1.0437 7.28589 2.00313L7.28589 8.95195C7.28589 9.91138 6.50812 10.6892 5.54868 10.6892C4.58925 10.6892 3.81148 9.91138 3.81148 8.95195L3.81148 2.00313C3.81148 1.0437 4.58925 0.26593 5.54869 0.26593Z"
    fill="#444444"/>
</svg>
