<svg width="28" height="29" viewBox="0 0 28 29" fill="#1790FF" xmlns="http://www.w3.org/2000/svg">
  <path
    d="M15.8653 20.6766L15.3286 17.9749H12.5159L11.9793 20.6766C11.9053 21.0375 11.6832 21.2132 11.3224 21.2132H9.94379C9.73099 21.2132 9.5552 21.13 9.42566 20.9727C9.28688 20.8154 9.24062 20.6303 9.28688 20.4175L11.933 7.23298C11.9978 6.87214 12.2199 6.69635 12.5807 6.69635H15.2639C15.6247 6.69635 15.8468 6.87214 15.9208 7.23298L18.5577 20.4175C18.5947 20.6303 18.5484 20.8154 18.4189 20.9727C18.2801 21.13 18.1136 21.2132 17.91 21.2132H16.5222C16.1521 21.2132 15.93 21.0375 15.8653 20.6766ZM14.792 15.301L13.9223 10.9617L13.0526 15.301H14.792Z"
    fill=""/>
  <path
    d="M5.16033 9.81437C4.59594 9.81437 4.14258 9.36101 4.14258 8.79662V5.7341C4.14258 4.08719 5.47491 2.75485 7.12183 2.75485H9.5922C10.1566 2.75485 10.61 3.20822 10.61 3.77261C10.61 4.337 10.1566 4.79036 9.5922 4.79036H7.12183C6.6037 4.79036 6.17809 5.21597 6.17809 5.7341V8.79662C6.17809 9.35176 5.72473 9.81437 5.16033 9.81437Z"
    fill="#444444"/>
  <path
    d="M20.8892 25.5711H18.4189C17.8545 25.5711 17.4011 25.1177 17.4011 24.5533C17.4011 23.9889 17.8545 23.5356 18.4189 23.5356H20.8892C21.4074 23.5356 21.833 23.11 21.833 22.5918V19.5293C21.833 18.9649 22.2864 18.5116 22.8507 18.5116C23.4151 18.5116 23.8685 18.9649 23.8685 19.5293V22.5918C23.8685 24.2388 22.5362 25.5711 20.8892 25.5711Z"
    fill="#444444"/>
  <path
    d="M22.8507 9.81437C22.2864 9.81437 21.833 9.36101 21.833 8.79662V5.7341C21.833 5.21597 21.4074 4.79036 20.8892 4.79036H18.4189C17.8545 4.79036 17.4011 4.337 17.4011 3.77261C17.4011 3.20822 17.8545 2.75485 18.4189 2.75485H20.8892C22.5362 2.75485 23.8685 4.08719 23.8685 5.7341V8.79662C23.8685 9.35176 23.4151 9.81437 22.8507 9.81437Z"
    fill="#444444"/>
  <path
    d="M9.5922 25.5711H7.12183C5.47491 25.5711 4.14258 24.2388 4.14258 22.5918V19.5293C4.14258 18.9649 4.59594 18.5116 5.16033 18.5116C5.72473 18.5116 6.17809 18.9649 6.17809 19.5293V22.5918C6.17809 23.11 6.6037 23.5356 7.12183 23.5356H9.5922C10.1566 23.5356 10.61 23.9889 10.61 24.5533C10.61 25.1177 10.1473 25.5711 9.5922 25.5711Z"
    fill="#444444"/>
</svg>
